<?xml version="1.0" standalone="no"?>
<!DOCTYPE svg PUBLIC "-//W3C//DTD SVG 20010904//EN"
 "http://www.w3.org/TR/2001/REC-SVG-20010904/DTD/svg10.dtd">
<svg version="1.0" xmlns="http://www.w3.org/2000/svg"
 width="486.000000pt" height="486.000000pt" viewBox="0 0 486.000000 486.000000"
 preserveAspectRatio="xMidYMid meet">
<metadata>
Created by potrace 1.14, written by Peter Selinger 2001-2017
</metadata>
<g transform="translate(0.000000,486.000000) scale(0.100000,-0.100000)"
fill="#000000" stroke="none">
<path d="M615 3704 c-330 -564 -600 -1034 -600 -1044 0 -10 270 -480 600
-1044 l600 -1026 1215 0 1215 0 600 1026 c330 564 600 1034 600 1044 0 10
-270 480 -600 1044 l-600 1026 -1215 0 -1215 0 -600 -1026z m1245 11 l0 -375
575 0 575 0 0 375 0 375 155 0 155 0 0 -1350 0 -1350 -155 0 -155 0 0 635 0
635 -215 0 -215 0 0 -840 0 -840 -155 0 -155 0 0 840 0 840 -205 0 -205 0 0
-635 0 -635 -155 0 -155 0 0 1350 0 1350 155 0 155 0 0 -375z"/>
<path d="M1676 3235 c-9 -9 -16 -20 -16 -25 0 -15 32 -41 48 -38 24 5 39 35
26 56 -15 23 -38 26 -58 7z"/>
<path d="M3132 3238 c-23 -23 -7 -68 24 -68 14 0 44 27 44 40 0 13 -30 40 -44
40 -6 0 -17 -5 -24 -12z"/>
<path d="M1860 3020 l0 -60 205 0 205 0 0 60 0 60 -205 0 -205 0 0 -60z"/>
<path d="M2580 3020 l0 -60 215 0 215 0 0 60 0 60 -215 0 -215 0 0 -60z"/>
<path d="M2400 2805 c-20 -24 -3 -55 30 -55 20 0 31 6 35 20 8 25 -10 50 -35
50 -10 0 -23 -7 -30 -15z"/>
</g>
</svg>
